<?xml version="1.0"?>
<svg xmlns="http://www.w3.org/2000/svg" xmlns:xlink="http://www.w3.org/1999/xlink" xmlns:svgjs="http://svgjs.com/svgjs" version="1.1" width="512" height="512" x="0" y="0" viewBox="0 0 512 512" style="enable-background:new 0 0 512 512" xml:space="preserve" class=""><g><path xmlns="http://www.w3.org/2000/svg" d="m256 6c-138.071 0-250 111.929-250 250s111.929 250 250 250 250-111.929 250-250-111.929-250-250-250zm92.738 377.871h-185.476v-15.18c100.338-118.344 114.158-137.469 114.158-158.879 0-13.522-8.909-22.59-21.682-22.59-14 0-22.535 9.442-22.535 24.454v4.824h-65.922v-4.613c0-50.423 33.05-83.753 87.651-83.753 52.9 0 89.423 32.524 89.423 79.343 0 31.381-11.61 55.471-64.947 117.254h69.33z" fill="#58b9db" data-original="#000000" style="" class=""/></g></svg>
