<?xml version="1.0"?>
<svg xmlns="http://www.w3.org/2000/svg" xmlns:xlink="http://www.w3.org/1999/xlink" xmlns:svgjs="http://svgjs.com/svgjs" version="1.1" width="512" height="512" x="0" y="0" viewBox="0 0 405.07 405.07" style="enable-background:new 0 0 512 512" xml:space="preserve" class=""><g>
<g xmlns="http://www.w3.org/2000/svg">
	<path d="M202.531,0C90.676,0,0,90.678,0,202.535C0,314.393,90.676,405.07,202.531,405.07c111.859,0,202.539-90.678,202.539-202.535   C405.07,90.678,314.391,0,202.531,0z M243.192,312.198c0,8.284-6.716,15-15,15h-27.629c-8.284,0-15-6.716-15-15v-168.35   l-17.1,9.231c-4.069,2.197-8.924,2.393-13.155,0.536c-4.233-1.858-7.373-5.565-8.51-10.046l-5.459-21.518   c-1.695-6.683,1.383-13.66,7.461-16.913l47.626-25.491c2.177-1.166,4.608-1.775,7.078-1.775h24.688c8.284,0,15,6.716,15,15V312.198   z" fill="#ffffff" data-original="#000000" style="" class=""/>
</g>
<g xmlns="http://www.w3.org/2000/svg">
</g>
<g xmlns="http://www.w3.org/2000/svg">
</g>
<g xmlns="http://www.w3.org/2000/svg">
</g>
<g xmlns="http://www.w3.org/2000/svg">
</g>
<g xmlns="http://www.w3.org/2000/svg">
</g>
<g xmlns="http://www.w3.org/2000/svg">
</g>
<g xmlns="http://www.w3.org/2000/svg">
</g>
<g xmlns="http://www.w3.org/2000/svg">
</g>
<g xmlns="http://www.w3.org/2000/svg">
</g>
<g xmlns="http://www.w3.org/2000/svg">
</g>
<g xmlns="http://www.w3.org/2000/svg">
</g>
<g xmlns="http://www.w3.org/2000/svg">
</g>
<g xmlns="http://www.w3.org/2000/svg">
</g>
<g xmlns="http://www.w3.org/2000/svg">
</g>
<g xmlns="http://www.w3.org/2000/svg">
</g>
</g></svg>
