<?xml version="1.0"?>
<svg xmlns="http://www.w3.org/2000/svg" xmlns:xlink="http://www.w3.org/1999/xlink" xmlns:svgjs="http://svgjs.com/svgjs" version="1.1" width="512" height="512" x="0" y="0" viewBox="0 0 512 512" style="enable-background:new 0 0 512 512" xml:space="preserve" class=""><g><path xmlns="http://www.w3.org/2000/svg" d="m256 6c-138.071 0-250 111.929-250 250s111.929 250 250 250 250-111.929 250-250-111.929-250-250-250zm-1.045 377.577c-53.591 0-90.432-34.981-91.931-86.6h64.009c.749 17.58 11.682 29.262 28.081 29.262 17.046 0 29-12.548 29-30.773s-12.388-29.536-31.795-29.536h-39.945v-13.9l40.608-66.763h-83.7v-56.844h171.118v11.457l-50.052 80.127c35.754 8.97 58.628 37.913 58.628 76.535 0 50.716-39.304 87.035-94.021 87.035z" fill="#58b9db" data-original="#000000" style="" class=""/></g></svg>
